<svg xmlns="http://www.w3.org/2000/svg" viewBox="0 0 512 512">
  <rect width="512" height="512" rx="15%" fill="#4f46e5"/>
  <path fill="white" d="M352 128c-32.26 0-61.19 12.6-82.67 32.94l-32.27-16.14c-2.3-10.21-6.75-19.39-12.86-27.23l33.27-66.54c10.92-5.6 23.29-8.77 36.33-8.77 44.13 0 80 35.87 80 80 0 44.13-35.87 80-80 80-5.86 0-11.55-.66-17.06-1.87L252.5 248.5c.08-2.82.28-5.64.28-8.5 0-44.11-35.89-80-80-80-29.93 0-55.92 16.57-69.58 40.92L61.12 177.9C46.55 161.64 26.77 152 4 152l92 96-92 96c22.77 0 42.55-9.64 57.12-25.9l42.08-22.92C119.08 311.53 145.07 328 175 328c44.13 0 80-35.89 80-80 0-2.86-.2-5.68-.28-8.5l24.24 48.11c5.51-1.21 11.2-1.87 17.06-1.87 44.13 0 80 35.87 80 80 0 44.13-35.87 80-80 80-13.08 0-25.45-3.17-36.39-8.77l-33.28-66.53c6.13-7.85 10.58-17.03 12.88-27.25l32.25-16.12C292.81 347.4 321.74 360 354 360c44.13 0 80-35.87 80-80 0-44.13-35.87-80-80-80zm-180 72c-17.64 0-32 14.36-32 32s14.36 32 32 32 32-14.36 32-32-14.36-32-32-32z"/>
</svg> 